# xmcd CD database file
#
# Track frame offsets:
#	150
#	10375
#	22188
#	35333
#	45517
#	55477
#	66705
#	79383
#	89279
#	100163
#	109978
#	117886
#	130772
#	141667
#	152117
#	163901
#	178339
#	188517
#	200624
#	210224
#	222484
#	234619
#	244502
#	254709
#
# Disc length: 3558 seconds
#
# Revision: 0
# Processed by: cddbd v1.5.1PL0 Copyright (c) Steve Scherf et al.
# Submitted via: CDex 1.50beta10
#
DISCID=6d0de418
DTITLE=Slim Whitman - A Time For Love - A Travellin' Man
DYEAR=2004
DGENRE=Country
TTITLE0=There's A Time For Love
TTITLE1=Nothing's New
TTITLE2=Think I'll Go Somewhere And Cry Myself To Sleep
TTITLE3=Promises
TTITLE4=Afraid
TTITLE5=What's This World A Comin' To
TTITLE6=One Dream
TTITLE7=You Bring Out The Best In Me
TTITLE8=Seven Roses
TTITLE9=If I Had My Life To Live Over
TTITLE10=If I Lost You
TTITLE11=Jerry
TTITLE12=A Travellin' Man
TTITLE13=Blueberry Hill
TTITLE14=I'll Never Find Another You
TTITLE15=At Mail Call Today
TTITLE16=No One To Cry To
TTITLE17=Lorena
TTITLE18=I Remember You
TTITLE19=Take It From Me
TTITLE20=Hopeless
TTITLE21=I'm Throwing Rice (At The Girl I Love)
TTITLE22=Behind The Tear
TTITLE23=At The End Of The Day
EXTD=YEAR: 2004
EXTT0=
EXTT1=
EXTT2=
EXTT3=
EXTT4=
EXTT5=
EXTT6=
EXTT7=
EXTT8=
EXTT9=
EXTT10=
EXTT11=
EXTT12=
EXTT13=
EXTT14=
EXTT15=
EXTT16=
EXTT17=
EXTT18=
EXTT19=
EXTT20=
EXTT21=
EXTT22=
EXTT23=
PLAYORDER=
